<?xml version="1.0" standalone="no"?>
<!DOCTYPE svg PUBLIC "-//W3C//DTD SVG 20010904//EN"
 "http://www.w3.org/TR/2001/REC-SVG-20010904/DTD/svg10.dtd">
<svg version="1.0" xmlns="http://www.w3.org/2000/svg"
 width="700.000000pt" height="700.000000pt" viewBox="0 0 700.000000 700.000000"
 preserveAspectRatio="xMidYMid meet">
<metadata>
Created by potrace 1.14, written by Peter Selinger 2001-2017
</metadata>
<g transform="translate(0.000000,700.000000) scale(0.100000,-0.100000)"
fill="#000000" stroke="none">
<path d="M6015 5774 c-240 -34 -440 -111 -640 -248 -100 -68 -257 -219 -328
-314 l-46 -63 -32 63 c-78 155 -226 311 -332 348 -79 28 -241 38 -329 20 -62
-12 -368 -132 -623 -245 -189 -83 -521 -248 -745 -369 -107 -58 -323 -167
-480 -242 -314 -151 -468 -232 -606 -317 -115 -71 -292 -204 -363 -271 -106
-101 -195 -267 -210 -392 -15 -128 20 -308 88 -445 l37 -77 -110 -17 c-221
-35 -443 -103 -586 -181 -276 -150 -439 -408 -401 -634 35 -214 195 -368 413
-395 46 -6 152 6 191 21 9 3 12 -19 13 -78 0 -116 28 -184 108 -264 73 -73
143 -103 256 -111 144 -10 271 37 372 140 l58 59 37 -32 c55 -49 118 -73 203
-78 64 -4 90 0 170 26 52 17 113 32 134 33 l39 4 81 -120 c130 -195 216 -264
373 -301 92 -22 246 -14 375 20 304 80 787 334 1328 700 107 73 310 206 450
296 481 309 694 457 761 527 70 76 119 149 160 239 26 57 29 74 29 172 0 166
-27 286 -96 425 -38 76 -38 77 -23 77 5 0 35 12 65 27 106 51 197 179 211 292
l6 51 76 0 c145 0 273 52 378 153 115 110 157 247 119 383 -20 69 -73 154
-115 185 l-30 22 42 27 c147 94 226 271 198 441 -35 213 -177 363 -395 419
-73 18 -226 32 -281 24z m220 -225 c59 -16 131 -65 157 -107 56 -91 11 -231
-116 -358 -73 -74 -131 -109 -227 -138 -77 -24 -133 -58 -137 -81 -5 -34 42
-73 95 -79 177 -22 224 -44 274 -131 33 -56 38 -118 15 -164 -21 -39 -81 -90
-135 -114 -117 -52 -220 -59 -339 -26 -85 24 -115 18 -132 -27 -16 -40 -12
-51 26 -94 35 -38 36 -43 32 -100 -8 -109 -95 -191 -206 -193 -94 -1 -156 66
-258 283 -89 186 -110 225 -170 305 -60 80 -104 159 -104 187 0 32 31 80 94
148 34 36 89 99 121 140 79 99 273 292 360 358 89 67 245 145 355 176 94 27
225 34 295 15z m-1790 -244 c20 -19 25 -34 25 -72 0 -63 -32 -195 -65 -269
-15 -33 -48 -117 -75 -189 -61 -167 -137 -349 -207 -497 l-55 -116 -33 32
c-65 65 -169 91 -263 65 -61 -16 -173 -126 -225 -220 -43 -77 -77 -199 -77
-276 0 -29 -3 -53 -6 -53 -3 0 -20 12 -37 26 -112 94 -300 135 -455 99 -128
-30 -201 -86 -248 -189 -24 -53 -26 -66 -21 -143 l5 -85 -72 7 c-217 21 -483
76 -779 161 -317 90 -357 117 -304 206 65 109 164 179 618 436 145 83 307 175
359 207 125 74 413 219 576 290 175 76 455 222 654 340 318 190 486 264 603
265 49 0 62 -4 82 -25z m235 -255 c188 -278 552 -915 759 -1329 49 -96 121
-290 121 -323 0 -13 -15 -11 -97 8 -224 54 -538 105 -791 129 -87 8 -211 22
-277 30 -66 8 -166 15 -222 15 -57 0 -103 3 -103 8 0 4 6 41 14 82 8 41 19
127 25 190 18 178 43 266 128 440 146 299 233 551 309 889 l5 24 25 -24 c14
-13 61 -76 104 -139z m-3018 -1493 c210 -103 424 -164 753 -211 61 -9 144 -16
185 -16 118 0 179 -21 427 -142 l231 -114 -83 -175 c-170 -356 -300 -721 -421
-1178 l-28 -104 -34 39 c-118 134 -154 178 -205 249 -31 44 -147 206 -258 360
-385 535 -532 782 -632 1060 -35 98 -76 301 -59 293 4 -2 60 -29 124 -61z
m2715 -92 c603 -48 1083 -114 1172 -160 35 -17 36 -22 20 -97 -19 -90 -66
-165 -164 -263 -94 -95 -198 -169 -445 -320 -80 -49 -199 -128 -265 -175 -597
-429 -1330 -834 -1641 -905 -85 -20 -182 -22 -220 -4 -27 14 -29 19 -27 64 1
28 13 86 27 130 35 115 164 475 231 645 31 80 84 215 116 300 95 247 112 283
144 319 28 30 36 33 85 32 30 0 109 -12 175 -27 140 -30 227 -34 270 -12 63
33 79 66 125 249 42 169 59 217 78 229 24 13 102 12 319 -5z m-2760 -455 c25
-9 38 -29 89 -138 109 -234 182 -352 406 -656 97 -131 106 -160 66 -211 -12
-15 -42 -41 -67 -56 -115 -74 -280 -6 -297 121 -7 53 -35 107 -60 117 -22 8
-44 -21 -99 -128 -63 -123 -133 -180 -262 -214 -113 -30 -195 -8 -227 60 -36
74 2 215 83 312 59 71 71 93 71 132 0 53 -29 50 -166 -18 -69 -34 -152 -68
-187 -76 -116 -27 -291 -15 -348 26 -34 24 -78 107 -85 161 -29 212 268 424
736 527 235 51 296 58 347 41z"/>
</g>
</svg>
